<svg width="80" height="73" viewBox="0 0 80 73" fill="none" xmlns="http://www.w3.org/2000/svg">
<rect x="0.63759" y="0.314065" width="78.7248" height="72.072" rx="21.5028" fill="#4F46E5"/>
<rect x="0.63759" y="0.314065" width="78.7248" height="72.072" rx="21.5028" stroke="#4F46E5" stroke-width="0.5544"/>
<g clip-path="url(#clip0_2448_117)">
<path fill-rule="evenodd" clip-rule="evenodd" d="M21.5637 46.8851H58.4363C62.8002 46.8851 66.3376 50.4225 66.3376 54.7864C66.3376 59.1502 62.8002 62.6877 58.4363 62.6877H21.5637C17.1999 62.6877 13.6624 59.1502 13.6624 54.7864C13.6624 50.4225 17.1999 46.8851 21.5637 46.8851ZM21.5637 52.1526C20.1091 52.1526 18.9299 53.3317 18.9299 54.7864C18.9299 56.241 20.1091 57.4201 21.5637 57.4201C23.0182 57.4201 24.1974 56.241 24.1974 54.7864C24.1974 53.3317 23.0182 52.1526 21.5637 52.1526ZM21.5637 28.4488H58.4363C62.8002 28.4488 66.3376 31.9862 66.3376 36.3501C66.3376 40.7139 62.8002 44.2513 58.4363 44.2513H21.5637C17.1999 44.2513 13.6624 40.7139 13.6624 36.3501C13.6624 31.9862 17.1999 28.4488 21.5637 28.4488ZM21.5637 33.7163C20.1091 33.7163 18.9299 34.8954 18.9299 36.3501C18.9299 37.8047 20.1091 38.9838 21.5637 38.9838C23.0182 38.9838 24.1974 37.8047 24.1974 36.3501C24.1974 34.8954 23.0182 33.7163 21.5637 33.7163ZM21.5637 10.0125H58.4363C62.8002 10.0125 66.3376 13.55 66.3376 17.9137C66.3376 22.2775 62.8002 25.815 58.4363 25.815H21.5637C17.1999 25.815 13.6624 22.2775 13.6624 17.9137C13.6624 13.55 17.1999 10.0125 21.5637 10.0125ZM21.5637 15.28C20.1091 15.28 18.9299 16.4592 18.9299 17.9137C18.9299 19.3683 20.1091 20.5475 21.5637 20.5475C23.0182 20.5475 24.1974 19.3683 24.1974 17.9137C24.1974 16.4592 23.0182 15.28 21.5637 15.28Z" fill="#22D3EE"/>
</g>
<defs>
<clipPath id="clip0_2448_117">
<rect width="52.6752" height="52.6752" fill="white" transform="translate(13.6624 10.0125)"/>
</clipPath>
</defs>
</svg>
