<svg width="80" height="74" viewBox="0 0 80 74" fill="none" xmlns="http://www.w3.org/2000/svg">
<rect x="0.63759" y="1.01402" width="78.7248" height="72.072" rx="21.5028" fill="#4F46E5"/>
<rect x="0.63759" y="1.01402" width="78.7248" height="72.072" rx="21.5028" stroke="#4F46E5" stroke-width="0.5544"/>
<path d="M19.4317 27.3709C19.4317 25.0553 19.4343 23.4403 19.5981 22.2218C19.7572 21.0381 20.0483 20.4112 20.4948 19.9647C20.9413 19.5182 21.5681 19.2271 22.7518 19.068C23.9704 18.9042 25.5854 18.9016 27.901 18.9016H52.099C54.4145 18.9016 56.0297 18.9042 57.2481 19.068C58.4319 19.2271 59.0588 19.5182 59.5053 19.9647C59.9517 20.4112 60.2428 21.0381 60.4018 22.2218C60.5656 23.4403 60.5683 25.0553 60.5683 27.3709V47.9392H19.4317V27.3709Z" stroke="#22D3EE" stroke-width="3.744"/>
<path d="M19.835 47.9392C18.2758 47.9392 17.0119 49.2031 17.0119 50.7624C17.0119 53.2124 18.9981 55.1986 21.4482 55.1986H58.5519C61.0019 55.1986 62.9881 53.2124 62.9881 50.7624C62.9881 49.2031 61.7242 47.9392 60.1649 47.9392H19.835Z" stroke="#22D3EE" stroke-width="3.744"/>
</svg>
