<svg width="47" height="47" viewBox="0 0 47 47" fill="none" xmlns="http://www.w3.org/2000/svg">
<g clip-path="url(#clip0_2293_87)">
<rect x="0.328003" y="0.600098" width="45.738" height="45.738" rx="22.869" fill="#F9F9F9"/>
<g clip-path="url(#clip1_2293_87)">
<path d="M19.4536 35.1077C12.307 37.2517 12.307 31.5344 9.44837 30.8198M29.4587 39.3957V33.8642C29.5124 33.1827 29.4203 32.4975 29.1886 31.8543C28.957 31.2111 28.5911 30.6246 28.1152 30.1337C32.6032 29.6335 37.32 27.9326 37.32 20.1285C37.3196 18.133 36.552 16.2139 35.176 14.7686C35.8276 13.0227 35.7815 11.0929 35.0474 9.38009C35.0474 9.38009 33.3608 8.87983 29.4587 11.4955C26.1828 10.6076 22.7295 10.6076 19.4536 11.4955C15.5515 8.87983 13.8649 9.38009 13.8649 9.38009C13.1308 11.0929 13.0847 13.0227 13.7363 14.7686C12.3501 16.2246 11.5817 18.161 11.5923 20.1714C11.5923 27.9183 16.3091 29.6192 20.7971 30.1766C20.3269 30.6625 19.9642 31.242 19.7327 31.8774C19.5012 32.5127 19.4061 33.1897 19.4536 33.8642V39.3957" stroke="#4F46E5" stroke-width="3.9204" stroke-linecap="round" stroke-linejoin="round"/>
</g>
</g>
<defs>
<clipPath id="clip0_2293_87">
<rect width="45.738" height="45.738" fill="white" transform="translate(0.328003 0.600098)"/>
</clipPath>
<clipPath id="clip1_2293_87">
<rect width="34.3035" height="34.3035" fill="white" transform="translate(6.58975 7.95068)"/>
</clipPath>
</defs>
</svg>
