<svg width="47" height="47" viewBox="0 0 47 47" fill="none" xmlns="http://www.w3.org/2000/svg">
<g clip-path="url(#clip0_2294_92)">
<rect x="0.722015" y="0.600098" width="45.738" height="45.738" rx="22.869" fill="#F9F9F9"/>
<path d="M29.8528 19.3854C32.1272 19.3854 34.3085 20.289 35.9168 21.8973C37.5251 23.5055 38.4286 25.6869 38.4286 27.9613V37.9665H32.7114V27.9613C32.7114 27.2032 32.4102 26.4761 31.8741 25.94C31.338 25.4039 30.6109 25.1027 29.8528 25.1027C29.0946 25.1027 28.3675 25.4039 27.8314 25.94C27.2953 26.4761 26.9941 27.2032 26.9941 27.9613V37.9665H21.2769V27.9613C21.2769 25.6869 22.1804 23.5055 23.7887 21.8973C25.397 20.289 27.5783 19.3854 29.8528 19.3854Z" stroke="#4F46E5" stroke-width="3.9204" stroke-linecap="round" stroke-linejoin="round"/>
<path d="M15.5596 20.8148H9.84238V37.9665H15.5596V20.8148Z" stroke="#4F46E5" stroke-width="3.9204" stroke-linecap="round" stroke-linejoin="round"/>
<path d="M12.701 16.5268C14.2798 16.5268 15.5596 15.247 15.5596 13.6682C15.5596 12.0894 14.2798 10.8096 12.701 10.8096C11.1222 10.8096 9.84238 12.0894 9.84238 13.6682C9.84238 15.247 11.1222 16.5268 12.701 16.5268Z" stroke="#4F46E5" stroke-width="3.9204" stroke-linecap="round" stroke-linejoin="round"/>
</g>
<defs>
<clipPath id="clip0_2294_92">
<rect width="45.738" height="45.738" fill="white" transform="translate(0.722015 0.600098)"/>
</clipPath>
</defs>
</svg>
