<svg width="80" height="74" viewBox="0 0 80 74" fill="none" xmlns="http://www.w3.org/2000/svg">
<rect x="0.63759" y="1.11387" width="78.7248" height="72.072" rx="21.5028" fill="#4F46E5"/>
<rect x="0.63759" y="1.11387" width="78.7248" height="72.072" rx="21.5028" stroke="#4F46E5" stroke-width="0.5544"/>
<g clip-path="url(#clip0_2452_84)">
<path d="M52.7039 8.1123H27.296C24.2882 8.1123 21.8515 10.5515 21.8515 13.5569V60.743C21.8515 63.7508 24.2906 66.1875 27.296 66.1875H52.7039C55.7118 66.1875 58.1485 63.7508 58.1485 60.743V13.5569C58.1485 10.549 55.7093 8.1123 52.7039 8.1123ZM40 62.5578C37.9988 62.5554 36.3776 60.9341 36.3776 58.933C36.3776 56.9318 38.0012 55.3081 40.0024 55.3081C42.0036 55.3081 43.6273 56.9318 43.6273 58.933C43.6273 59.9347 43.2207 60.8398 42.565 61.4955C41.9092 62.1513 41.0018 62.5578 40 62.5578ZM52.7039 50.3136C52.6991 51.0589 52.0942 51.6639 51.3489 51.6687H28.656C27.9083 51.6687 27.3009 51.0613 27.3009 50.3136V14.9192C27.3009 14.1715 27.9083 13.5641 28.656 13.5641H51.3392C52.0845 13.569 52.6894 14.1739 52.6943 14.9192L52.7039 50.3136Z" fill="#22D3EE"/>
</g>
<defs>
<clipPath id="clip0_2452_84">
<rect width="58.0752" height="58.0752" fill="white" transform="translate(10.9624 8.1123)"/>
</clipPath>
</defs>
</svg>
