<svg width="80" height="74" viewBox="0 0 80 74" fill="none" xmlns="http://www.w3.org/2000/svg">
<rect x="0.63759" y="0.913919" width="78.7248" height="72.072" rx="21.5028" fill="#4F46E5"/>
<rect x="0.63759" y="0.913919" width="78.7248" height="72.072" rx="21.5028" stroke="#4F46E5" stroke-width="0.5544"/>
<g clip-path="url(#clip0_2455_132)">
<path d="M60.0605 37.6992H51.998L52.6562 36.9521L59.1963 29.5293L59.3174 29.3906L59.501 29.3779L59.5781 29.3721L60.0605 29.3379V37.6992Z" fill="#22D3EE" stroke="#4338CA" stroke-width="0.9"/>
<path d="M27.3384 16.8918C28.2432 16.8919 29.072 17.1752 29.7934 17.6165L29.9897 17.7366L30.0073 17.9651C30.0318 18.2745 30.0835 18.5664 30.185 18.843H30.1841L30.186 18.8479L30.5669 19.8489L29.5854 19.4202L29.5786 19.4172L29.5688 19.4133C29.2616 19.2708 28.9415 19.1995 28.6157 19.1995C27.6123 19.1995 26.6763 19.8745 26.2651 20.9895L24.7934 25.0051C24.5253 25.7428 24.5279 26.5499 24.7964 27.2795L24.9087 27.5461C25.1945 28.1482 25.6435 28.6015 26.186 28.8557L26.1958 28.8606L27.0444 29.2522L26.2085 29.6711L26.2016 29.6741L26.1919 29.6799V29.679C24.9727 30.2513 24.3214 31.8285 24.7475 33.3069C24.7637 33.3629 24.7769 33.4237 24.7847 33.4563C24.7937 33.4944 24.7992 33.5168 24.8052 33.5334L26.1196 37.094L26.3432 37.6995H22.5249C20.3096 37.6995 18.2427 39.1687 17.2934 41.5032L11.3794 56.052L10.5122 55.8821V22.6165C10.5122 19.5074 12.7608 16.8918 15.6431 16.8918H27.3384Z" fill="#22D3EE" stroke="#4338CA" stroke-width="0.9"/>
<path d="M41.6361 14.3743C41.8357 14.3743 42.0388 14.4172 42.2318 14.5071L42.2308 14.5081L45.7904 16.1604H45.7914C46.1245 16.3157 46.3824 16.5879 46.5394 16.9163L46.6009 17.0608V17.0618C46.7456 17.4545 46.7472 17.8939 46.6029 18.2883L45.8685 20.2922C46.2095 20.6258 46.5336 20.9848 46.8373 21.3694L48.5287 20.5774L48.5296 20.5764C48.7205 20.488 48.9228 20.4436 49.1263 20.4436C49.7493 20.4438 50.302 20.8577 50.5306 21.4758H50.5316L50.7904 22.178L50.8832 22.4299L50.7054 22.6311L45.9388 28.0432L45.3226 28.7434L45.1585 27.8254C45.0744 27.3545 44.9497 26.89 44.7826 26.4387H44.7816C43.7709 23.7011 41.4408 21.9758 38.8792 21.9758C38.0434 21.9758 37.2229 22.161 36.4408 22.5286L36.4398 22.5295C34.868 23.266 33.6309 24.6535 32.971 26.4583C32.3101 28.2637 32.3126 30.2515 32.9779 32.0549L33.1488 32.4788C34.0558 34.5543 35.7566 35.9646 37.7025 36.3772L38.4564 36.5364L37.9466 37.1145L37.5658 37.5471L37.432 37.6995H31.4681L31.3334 37.5471C31.238 37.4387 31.1433 37.3426 31.0296 37.2219C30.9978 37.1881 30.9659 37.1518 30.933 37.1155L29.7796 37.6565L29.6888 37.6995H27.7474L27.6146 37.5618C27.5268 37.4708 27.3302 37.2893 27.2298 37.0168L25.7494 33.0081C25.4547 32.2086 25.7729 31.2441 26.5531 30.8782L28.2923 30.0627C28.2595 29.5274 28.2603 28.9941 28.2923 28.4651L26.5492 27.6565H26.5482C26.1705 27.4802 25.8861 27.1498 25.7406 26.7561V26.7551C25.5962 26.3626 25.5944 25.9236 25.7376 25.5295L25.7386 25.5286L27.2074 21.5159L27.2084 21.5149C27.437 20.8957 27.9901 20.4807 28.6156 20.4807C28.8156 20.4807 29.0177 20.5238 29.2103 20.6135L30.9017 21.4006C31.1993 21.0185 31.5205 20.6558 31.8656 20.3157L31.1283 18.3167C30.8334 17.5167 31.152 16.5547 31.931 16.1877H31.932L35.4886 14.5208V14.5217C35.6818 14.4308 35.885 14.386 36.0873 14.386C36.6716 14.386 37.1918 14.7509 37.4427 15.3049L37.4896 15.4182L38.2093 17.3694C38.4255 17.354 38.6412 17.344 38.8558 17.344C39.0759 17.344 39.2951 17.3543 39.513 17.3694L40.2308 15.4104L40.2767 15.2971C40.5261 14.74 41.0492 14.3743 41.6361 14.3743Z" fill="#22D3EE" stroke="#4338CA" stroke-width="0.9"/>
<path d="M38.8794 23.2576C41.0155 23.2578 42.896 24.6496 43.7583 26.7576L43.8394 26.9636L43.9585 27.323C44.211 28.1654 44.2762 29.0418 44.1909 29.8992L44.1763 30.0427L44.0806 30.1521L39.8042 35.0056L39.6919 35.1335L39.522 35.1541C37.1804 35.4412 34.8276 33.9842 33.9214 31.5291C33.3805 30.0634 33.3788 28.4479 33.9155 26.9812C34.4525 25.5139 35.4725 24.3502 36.8013 23.7273C37.4639 23.4169 38.1637 23.2576 38.8794 23.2576Z" fill="#22D3EE" stroke="#4338CA" stroke-width="0.9"/>
<path d="M57.9771 10.3662C59.2919 9.47182 60.8054 9.59892 61.8639 10.1191C62.4248 10.3948 62.902 10.8016 63.1529 11.2783C63.3998 11.7474 63.4267 12.3016 63.0709 12.7754L62.9947 12.8691C61.8521 14.1664 61.0356 15.0214 60.4557 15.7041C59.87 16.3936 59.6525 16.7721 59.6168 17.0664C59.5862 17.3199 59.6837 17.6113 60.1236 18.165C60.3442 18.4426 60.6226 18.7535 60.9654 19.1289L62.1959 20.4805L62.2662 20.5518C62.6282 20.8849 63.1411 20.86 63.4791 20.4766L66.5436 16.998C66.7487 16.7654 67.0072 16.611 67.3063 16.5811C67.5998 16.5518 67.8711 16.6494 68.0963 16.7979C68.5337 17.0865 68.8894 17.6242 69.1275 18.2344C69.6086 19.4672 69.7118 21.2626 68.775 22.7695L67.6002 24.6572C66.4145 26.5633 64.5038 27.7705 62.4049 27.9053L62.4059 27.9062L58.8961 28.1328L50.6031 37.5469L50.4684 37.6992H38.9605L39.6188 36.9521L53.0426 21.7129C53.1113 20.129 53.1444 18.8683 53.2193 17.8398C53.2971 16.7724 53.424 15.9076 53.7018 15.127C54.264 13.5468 55.4163 12.4036 57.7174 10.5586L57.9771 10.3662Z" fill="#22D3EE" stroke="#4338CA" stroke-width="0.9"/>
<path d="M63.8956 40.0718C65.2004 40.0718 66.3911 40.8198 67.0704 42.0132L67.1905 42.2397C67.7574 43.3886 67.8081 44.7717 67.3204 45.9712L60.5411 62.6411C60.1688 63.5591 59.3352 64.1878 58.3751 64.188H13.961C13.126 64.1879 12.3758 63.7096 11.9503 62.9644H11.9493C11.5265 62.2217 11.4696 61.2947 11.794 60.4976L19.1007 42.5278L19.2218 42.2573C19.8658 40.9368 21.118 40.0718 22.5255 40.0718H63.8956Z" fill="#22D3EE" stroke="#4338CA" stroke-width="0.9"/>
</g>
<defs>
<clipPath id="clip0_2455_132">
<rect width="58.0752" height="65.4369" fill="white" transform="translate(10.9624 4.23145)"/>
</clipPath>
</defs>
</svg>
