<svg width="47" height="47" viewBox="0 0 47 47" fill="none" xmlns="http://www.w3.org/2000/svg">
<g clip-path="url(#clip0_2289_77)">
<rect x="0.540001" y="0.600098" width="45.738" height="45.738" rx="22.869" fill="#F9F9F9"/>
<path fill-rule="evenodd" clip-rule="evenodd" d="M34.3031 13.0639C31.4791 10.2502 27.7234 8.69982 23.7221 8.69824C15.4775 8.69824 8.76737 15.3757 8.76408 23.5835C8.76298 26.2071 9.45178 28.7682 10.7607 31.0256L8.63866 38.7396L16.5681 36.6696C18.7528 37.8555 21.2126 38.4805 23.7161 38.4815H23.7222C31.966 38.4815 38.6767 31.8032 38.68 23.5954C38.6816 19.6178 37.1272 15.8776 34.3031 13.0639ZM23.7222 35.9673H23.7171C21.4863 35.9664 19.2982 35.37 17.3895 34.2427L16.9354 33.9745L12.2301 35.2029L13.486 30.6372L13.1904 30.1691C11.9459 28.1991 11.2886 25.9222 11.2896 23.5844C11.2923 16.7625 16.8695 11.2124 23.7272 11.2124C27.0478 11.2137 30.1694 12.5024 32.5166 14.841C34.8639 17.1797 36.1559 20.2884 36.1546 23.5944C36.1517 30.4168 30.5746 35.9673 23.7222 35.9673ZM30.5417 26.7008C30.1679 26.5146 28.3304 25.6147 27.9878 25.4906C27.6452 25.3665 27.3961 25.3044 27.1469 25.6768C26.8978 26.0491 26.1815 26.887 25.9634 27.1352C25.7454 27.3834 25.5274 27.4145 25.1537 27.2283C24.7799 27.0421 23.5757 26.6494 22.1481 25.3821C21.0371 24.3959 20.2869 23.1778 20.0689 22.8054C19.8509 22.4331 20.0457 22.2317 20.2328 22.0463C20.4009 21.8796 20.6066 21.6119 20.7935 21.3947C20.9803 21.1775 21.0426 21.0223 21.1671 20.7741C21.2917 20.5258 21.2295 20.3086 21.136 20.1224C21.0426 19.9363 20.2952 18.1055 19.9837 17.3607C19.6803 16.6354 19.3722 16.7336 19.1428 16.7222C18.925 16.7114 18.6756 16.7091 18.4265 16.7091C18.1773 16.7091 17.7724 16.8022 17.4298 17.1746C17.0872 17.5469 16.1218 18.4468 16.1218 20.2776C16.1218 22.1084 17.461 23.877 17.6478 24.1253C17.8347 24.3736 20.2833 28.1306 24.0325 29.7417C24.9242 30.1249 25.6203 30.3538 26.1631 30.5253C27.0585 30.8083 27.8732 30.7684 28.5172 30.6726C29.2353 30.5659 30.7285 29.7728 31.04 28.9039C31.3514 28.0351 31.3514 27.2904 31.258 27.1352C31.1646 26.9801 30.9154 26.887 30.5417 26.7008Z" fill="#4F46E5"/>
</g>
<defs>
<clipPath id="clip0_2289_77">
<rect width="45.738" height="45.738" fill="white" transform="translate(0.540001 0.600098)"/>
</clipPath>
</defs>
</svg>
