<svg width="80" height="74" viewBox="0 0 80 74" fill="none" xmlns="http://www.w3.org/2000/svg">
<rect x="0.63759" y="1.21409" width="78.7248" height="72.072" rx="21.5028" fill="#4F46E5"/>
<rect x="0.63759" y="1.21409" width="78.7248" height="72.072" rx="21.5028" stroke="#4F46E5" stroke-width="0.5544"/>
<g clip-path="url(#clip0_2455_376)">
<path d="M20.2468 53.7374C20.2468 55.5283 21.1247 57.1788 22.8806 58.6888C24.6364 60.1988 27.0419 61.3928 30.0971 62.2707C33.1522 63.1487 36.4532 63.5876 40 63.5876C43.5468 63.5876 46.8478 63.1487 49.9029 62.2707C52.9581 61.3928 55.3636 60.1988 57.1194 58.6888C58.8753 57.1788 59.7532 55.5283 59.7532 53.7374V48.1538C59.7532 49.9447 58.8577 51.525 57.0668 52.8945C55.2758 54.2641 52.9054 55.2825 49.9556 55.9497C47.0058 56.6169 43.6873 56.9681 40 57.0032C36.3127 57.0383 32.9942 56.6872 30.0444 55.9497C27.0946 55.2123 24.7242 54.1939 22.9332 52.8945C21.1423 51.5952 20.2468 50.015 20.2468 48.1538V53.7374ZM20.2468 43.8344C20.2468 45.6254 21.1247 47.2759 22.8806 48.7859C24.6364 50.2959 27.0419 51.5074 30.0971 52.4205C33.1522 53.3335 36.4532 53.7725 40 53.7374C43.5468 53.7022 46.8478 53.2633 49.9029 52.4205C52.9581 51.5777 55.3636 50.3661 57.1194 48.7859C58.8753 47.2056 59.7532 45.5551 59.7532 43.8344V38.3035C59.7532 40.0594 58.8577 41.6221 57.0668 42.9916C55.2758 44.3612 52.9054 45.3971 49.9556 46.0994C47.0058 46.8018 43.6873 47.1529 40 47.1529C36.3127 47.1529 32.9942 46.8018 30.0444 46.0994C27.0946 45.3971 24.7242 44.3612 22.9332 42.9916C21.1423 41.6221 20.2468 40.0594 20.2468 38.3035V43.8344ZM20.2468 33.9841C20.2468 35.7751 21.1247 37.4256 22.8806 38.9356C24.6364 40.4456 27.0419 41.6396 30.0971 42.5175C33.1522 43.3955 36.4532 43.8344 40 43.8344C43.5468 43.8344 46.8478 43.3955 49.9029 42.5175C52.9581 41.6396 55.3636 40.4456 57.1194 38.9356C58.8753 37.4256 59.7532 35.7751 59.7532 33.9841V28.4006C59.7532 30.1915 58.8577 31.7718 57.0668 33.1413C55.2758 34.5109 52.9054 35.5293 49.9556 36.1965C47.0058 36.8637 43.6873 37.2149 40 37.25C36.3127 37.2851 32.9942 36.934 30.0444 36.1965C27.0946 35.459 24.7242 34.4407 22.9332 33.1413C21.1423 31.842 20.2468 30.2618 20.2468 28.4006V33.9841ZM20.2468 24.0812C20.2468 25.8722 21.1247 27.5227 22.8806 29.0327C24.6364 30.5427 27.0419 31.7542 30.0971 32.6673C33.1522 33.5803 36.4532 34.0193 40 33.9841C43.5468 33.949 46.8478 33.5101 49.9029 32.6673C52.9581 31.8245 55.3636 30.6129 57.1194 29.0327C58.8753 27.4524 59.7532 25.8019 59.7532 24.0812V20.8153C59.7532 19.0244 58.8753 17.3739 57.1194 15.8639C55.3636 14.3539 52.9581 13.1599 49.9029 12.282C46.8478 11.404 43.5468 10.9475 40 10.9124C36.4532 10.8773 33.1522 11.3338 30.0971 12.282C27.0419 13.2301 24.6364 14.4241 22.8806 15.8639C21.1247 17.3037 20.2468 18.9542 20.2468 20.8153V24.0812Z" fill="#22D3EE"/>
</g>
<defs>
<clipPath id="clip0_2455_376">
<rect width="52.6752" height="52.6752" fill="white" transform="translate(13.6624 10.9125)"/>
</clipPath>
</defs>
</svg>
