<svg width="47" height="47" viewBox="0 0 47 47" fill="none" xmlns="http://www.w3.org/2000/svg">
<g clip-path="url(#clip0_2292_82)">
<rect x="0.933983" y="0.600098" width="45.738" height="45.738" rx="22.869" fill="#F9F9F9"/>
<path d="M11.6425 37.8075C10.769 37.8075 10.0213 37.4965 9.39927 36.8744C8.77726 36.2524 8.46625 35.5047 8.46625 34.6312V15.5737C8.46625 14.7002 8.77726 13.9525 9.39927 13.3305C10.0213 12.7085 10.769 12.3975 11.6425 12.3975H37.0525C37.926 12.3975 38.6737 12.7085 39.2957 13.3305C39.9177 13.9525 40.2288 14.7002 40.2288 15.5737V34.6312C40.2288 35.5047 39.9177 36.2524 39.2957 36.8744C38.6737 37.4965 37.926 37.8075 37.0525 37.8075H11.6425ZM24.3475 26.6906L11.6425 18.75V34.6312H37.0525V18.75L24.3475 26.6906ZM24.3475 23.5143L37.0525 15.5737H11.6425L24.3475 23.5143ZM11.6425 18.75V15.5737V34.6312V18.75Z" fill="#4F46E5"/>
</g>
<defs>
<clipPath id="clip0_2292_82">
<rect width="45.738" height="45.738" fill="white" transform="translate(0.933983 0.600098)"/>
</clipPath>
</defs>
</svg>
